<?xml version="1.0" encoding="utf-8"?>
<!-- Generator: Adobe Illustrator 19.2.0, SVG Export Plug-In . SVG Version: 6.00 Build 0)  -->
<svg xmlns="http://www.w3.org/2000/svg" xmlns:xlink="http://www.w3.org/1999/xlink" version="1.1" id="internetconnection" x="0px" y="0px" viewBox="0 0 227.9998 219.8223" enable-background="new 0 0 227.9998 219.8223" xml:space="preserve" width="512" height="512">
<g>
	<path fill="#5CB0FF" d="M90.5859,57.5312c0,16.1692-4.2849,30.4375-11.1694,40.3296C94.0662,89.6333,104,73.9653,104,56H90.5383   C90.5471,56.5139,90.5859,57.0134,90.5859,57.5312z"/>
	<path fill="#5CB0FF" d="M90.0442,48h13.2334c-2.7192-16.1077-13.4507-29.5059-27.9751-35.9153   C83.0005,20.1106,88.4148,32.907,90.0442,48z"/>
	<path fill="#5CB0FF" d="M52,48V11.6692C41.2048,14.6653,32.3223,29.4509,30.0071,48H52z"/>
	<path fill="#5CB0FF" d="M21.9521,48c1.6296-15.092,7.0449-27.8882,14.7429-35.9141C22.1716,18.4958,11.4417,31.8931,8.7224,48   H21.9521z"/>
	<path fill="#5CB0FF" d="M60,11.6694V48h21.989C79.6738,29.4514,70.7925,14.6663,60,11.6694z"/>
	<path fill="#5CB0FF" d="M60,103.3892c12.5894-3.4958,22.5859-23.0459,22.5859-45.8579c0-0.5159-0.0359-1.0188-0.0459-1.5312H60   V103.3892z"/>
	<path fill="#5CB0FF" d="M52,103.3894V56H29.4561c-0.01,0.5125-0.0459,1.0154-0.0459,1.5312   C29.4102,80.3438,39.4075,99.8945,52,103.3894z"/>
	<path fill="#5CB0FF" d="M21.4102,57.5312c0-0.5178,0.0388-1.0173,0.0476-1.5312H8c0,17.9639,9.9326,33.6311,24.5803,41.8591   C25.6956,87.967,21.4102,73.6992,21.4102,57.5312z"/>
	<rect x="132" y="148" fill="#D0E8FF" width="80" height="40"/>
	<polygon fill="#D0E8FF" points="130.707,196 125.9062,208 218.0938,208 213.293,196  "/>
	<path fill="#1C71DA" d="M112,56c0-30.8789-25.1211-56-56-56S0,25.1211,0,56s25.1211,56,56,56S112,86.8789,112,56z M29.4561,56H52   v47.3894c-12.5925-3.4949-22.5898-23.0457-22.5898-45.8582C29.4102,57.0154,29.446,56.5125,29.4561,56z M82.5859,57.5312   c0,22.812-9.9966,42.3621-22.5859,45.8579V56h22.54C82.55,56.5125,82.5859,57.0154,82.5859,57.5312z M60,48V11.6694   C70.7925,14.6663,79.6738,29.4514,81.989,48H60z M52,11.6692V48H30.0071C32.3223,29.4509,41.2048,14.6653,52,11.6692z    M79.4165,97.8608c6.8845-9.8921,11.1694-24.1604,11.1694-40.3296c0-0.5178-0.0388-1.0173-0.0476-1.5312H104   C104,73.9653,94.0662,89.6333,79.4165,97.8608z M103.2776,48H90.0442c-1.6294-15.093-7.0437-27.8894-14.7417-35.9153   C89.8269,18.4941,100.5583,31.8923,103.2776,48z M36.6951,12.0859C28.9971,20.1118,23.5818,32.908,21.9521,48H8.7224   C11.4417,31.8931,22.1716,18.4958,36.6951,12.0859z M8,56h13.4578c-0.0088,0.5139-0.0476,1.0134-0.0476,1.5312   c0,16.168,4.2854,30.4358,11.1702,40.3279C17.9326,89.6311,8,73.9639,8,56z"/>
	<path fill="#1C71DA" d="M227.7148,210.5156L220,191.2285V144c0-2.2109-1.7891-4-4-4h-88c-2.2109,0-4,1.7891-4,4v47.2285   l-7.7148,19.2871c-0.4922,1.2305-0.3398,2.6289,0.4023,3.7266C117.4336,215.3398,118.6719,216,120,216h104   c1.3281,0,2.5664-0.6602,3.3125-1.7578C228.0547,213.1445,228.207,211.7461,227.7148,210.5156z M132,148h80v40h-80V148z    M125.9062,208l4.8008-12h82.5859l4.8008,12H125.9062z"/>
	<path fill="#1C71DA" d="M102.8281,165.8594c-1.5625-1.5625-4.0938-1.5625-5.6562,0s-1.5625,4.0938,0,5.6562L101.6562,176H60   v-33.6562l4.4844,4.4844C65.2656,147.6094,66.2891,148,67.3125,148s2.0469-0.3906,2.8281-1.1719   c1.5625-1.5625,1.5625-4.0938,0-5.6562l-10.3853-10.3853C59.2361,129.1802,57.7805,128,56,128   c-1.7803,0-3.2358,1.1802-3.7551,2.7864l-10.3855,10.3855c-1.5625,1.5625-1.5625,4.0938,0,5.6562s4.0938,1.5625,5.6562,0   L52,142.3438V180c0,2.2109,1.7891,4,4,4h45.6562l-4.4844,4.4844c-1.5625,1.5625-1.5625,4.0938,0,5.6562   c0.7812,0.7812,1.8047,1.1719,2.8281,1.1719s2.0469-0.3906,2.8281-1.1719l11.3125-11.3125c1.5625-1.5625,1.5625-4.0938,0-5.6562   L102.8281,165.8594z"/>
</g>
<path fill="#FF5D5D" d="M196.252,115.8223c-1.0234,0-2.0479-0.3906-2.8281-1.1719c-1.5625-1.5615-1.5625-4.0947,0-5.6562  l14.1426-14.1426c1.5605-1.5625,4.0957-1.5625,5.6562,0c1.5625,1.5615,1.5625,4.0947,0,5.6562l-14.1426,14.1426  C198.2998,115.4316,197.2754,115.8223,196.252,115.8223z"/>
<path fill="#FF5D5D" d="M210.3945,115.8223c-1.0234,0-2.0469-0.3906-2.8281-1.1719l-14.1426-14.1416  c-1.5625-1.5615-1.5625-4.0947,0-5.6562c1.5605-1.5625,4.0938-1.5625,5.6562,0l14.1426,14.1416  c1.5625,1.5615,1.5625,4.0947,0,5.6562C212.4424,115.4316,211.418,115.8223,210.3945,115.8223z"/>
<path fill="#00D40B" d="M26.252,219.8223c-7.7197,0-14-6.2803-14-14s6.2803-14,14-14s14,6.2803,14,14  S33.9717,219.8223,26.252,219.8223z M26.252,199.8223c-3.3086,0-6,2.6914-6,6s2.6914,6,6,6s6-2.6914,6-6  S29.5605,199.8223,26.252,199.8223z"/>
<path fill="#FFC504" d="M139.5664,54.4492c-1.0234,0-2.0469-0.3906-2.8281-1.1719l-11.3145-11.3135  c-0.75-0.75-1.1719-1.7676-1.1719-2.8281s0.4219-2.0781,1.1719-2.8281l11.3145-11.3135c1.5625-1.5625,4.0938-1.5625,5.6562,0  l11.3135,11.3135c1.5625,1.5615,1.5625,4.0947,0,5.6562l-11.3135,11.3135C141.6143,54.0586,140.5898,54.4492,139.5664,54.4492z   M133.9092,39.1357l5.6572,5.6572l5.6562-5.6572l-5.6562-5.6572L133.9092,39.1357z"/>
</svg>
