<?xml version="1.0" standalone="no"?>
<!DOCTYPE svg PUBLIC "-//W3C//DTD SVG 20010904//EN"
 "http://www.w3.org/TR/2001/REC-SVG-20010904/DTD/svg10.dtd">
<svg version="1.0" xmlns="http://www.w3.org/2000/svg"
 width="700.000000pt" height="700.000000pt" viewBox="0 0 700.000000 700.000000"
 preserveAspectRatio="xMidYMid meet">
<metadata>
Created by potrace 1.11, written by Peter Selinger 2001-2013
</metadata>
<g transform="translate(0.000000,700.000000) scale(0.100000,-0.100000)"
fill="#000000" stroke="none">
<path d="M1459 6855 c-466 -75 -868 -325 -1144 -710 -78 -108 -184 -316 -224
-440 -240 -728 12 -1502 634 -1950 101 -73 330 -190 449 -230 44 -14 131 -38
195 -52 107 -25 134 -27 346 -27 203 0 243 2 335 22 465 101 844 355 1099 737
383 573 384 1326 2 1897 -257 384 -635 640 -1091 738 -134 29 -464 37 -601 15z"/>
<path d="M5973 3984 c-52 -26 -77 -80 -66 -137 4 -20 34 -60 84 -112 l78 -81
-74 -74 c-41 -41 -80 -88 -85 -106 -30 -91 78 -186 163 -143 12 6 54 43 94 82
l72 71 74 -72 c97 -94 135 -108 201 -77 56 27 83 103 55 158 -6 12 -43 55 -82
94 l-71 72 76 79 c42 43 80 90 83 105 16 64 -16 123 -79 147 -51 19 -86 3
-171 -81 l-81 -79 -69 71 c-95 97 -138 114 -202 83z"/>
<path d="M1645 2913 c-14 -16 -105 -111 -204 -213 -109 -112 -182 -196 -186
-213 -12 -44 3 -94 35 -121 72 -60 117 -49 226 56 l84 81 0 -603 0 -602 34
-34 34 -34 728 0 729 0 -77 -77 c-85 -87 -98 -108 -98 -153 0 -65 56 -120 123
-120 48 0 85 30 283 231 179 181 193 203 179 267 -8 38 -398 428 -437 437 -41
10 -77 -2 -115 -40 -28 -28 -33 -40 -33 -80 0 -46 2 -50 87 -136 l87 -89 -642
0 -642 0 0 517 0 517 83 -81 c65 -64 91 -83 122 -89 81 -15 156 61 141 141 -7
34 -34 67 -187 225 -99 102 -191 197 -206 213 -21 22 -34 27 -75 27 -41 0 -53
-4 -73 -27z"/>
<path d="M3893 2569 c-17 -5 -43 -23 -57 -40 l-26 -31 0 -743 0 -744 -126
-317 c-133 -333 -136 -344 -98 -402 36 -55 -48 -52 1694 -52 1379 0 1616 2
1645 14 39 17 75 68 75 109 0 15 -56 168 -125 339 l-125 313 0 742 0 741 -26
31 c-14 17 -42 35 -62 41 -48 13 -2723 12 -2769 -1z m2617 -854 l0 -615 -1227
2 -1228 3 -3 613 -2 612 1230 0 1230 0 0 -615z m103 -1022 c36 -93 69 -176 73
-185 6 -17 -65 -18 -1406 -18 -1341 0 -1412 1 -1406 18 4 9 37 92 73 185 l67
167 1266 0 1266 0 67 -167z"/>
<path d="M675 960 c-277 -90 -383 -424 -211 -658 107 -145 295 -206 468 -152
120 37 205 111 262 230 29 61 31 72 31 175 0 103 -2 114 -32 177 -44 93 -110
160 -199 205 -65 32 -84 36 -166 39 -73 3 -106 0 -153 -16z m208 -236 c69 -35
107 -95 107 -169 0 -112 -94 -195 -206 -182 -136 15 -207 170 -131 285 47 72
157 103 230 66z"/>
</g>
</svg>
